HIERARCHY
ROOT hip
{
	OFFSET 0.000000 103.560692 0.219151
	CHANNELS 6 Xposition Yposition Zposition Zrotation Xrotation Yrotation
	JOINT pelvis
	{
		OFFSET 0.000000 1.955040 1.591925
		CHANNELS 3 Zrotation Xrotation Yrotation
		JOINT rThigh
		{
			OFFSET -8.341582 -7.629402 -0.646910
			CHANNELS 3 Zrotation Xrotation Yrotation
			JOINT rShin
			{
				OFFSET -2.185763 -45.093132 -0.705710
				CHANNELS 3 Zrotation Xrotation Yrotation
				JOINT rFoot
				{
					OFFSET -0.730976 -46.379768 -2.264282
					CHANNELS 3 Zrotation Xrotation Yrotation
					JOINT rToe
					{
						OFFSET -2.797621 -4.200019 10.742415
						CHANNELS 3 Zrotation Xrotation Yrotation
						JOINT rBigToe
						{
							OFFSET 2.433708 -0.269072 1.841711
							CHANNELS 3 Zrotation Xrotation Yrotation
							End Site
							{
								OFFSET 2.553802 1.165458 0.000000
							}
						}
					}
				}
			}
		}
	}
}
MOTION
Frames:	17
Frame Time:	0.0333333
0.000000 0.988564 0.000000 0.907127 3.408757 -0.847224 -0.000000 -0.000000 0.000000 -2.343466 -7.545961 4.637968 2.626100 7.682509 11.455010 -6.190181 -19.691628 -8.712090 -4.721488 -7.726067 -1.699440 -0.000001 -0.000003 0.000001 
-0.309466 0.975937 -0.057037 0.833399 3.373634 -0.742596 0.000000 0.000001 -0.000000 -1.719353 -7.538850 5.368596 2.344440 7.575092 13.618107 -7.419961 -19.198938 -11.834460 -4.614073 -7.786621 -1.726219 -0.000001 -0.000002 -0.000001 
-0.580996 1.000671 -0.056641 0.537413 3.380227 -0.860996 -0.000000 -0.000001 0.000000 -1.231816 -7.042954 6.854479 2.566437 6.353194 12.195753 -7.582478 -18.465778 -11.991108 -4.592829 -7.774565 -1.732828 0.000000 0.000003 -0.000009 
-0.883208 1.026543 -0.053725 0.298827 3.482700 -0.647216 0.000000 0.000000 -0.000000 -0.874620 -6.499692 6.751783 2.635888 5.051064 12.694109 -7.893991 -17.742500 -12.588703 -4.557926 -7.689604 -1.751017 0.000001 0.000004 -0.000002 
-1.257168 1.019348 -0.000254 -0.020257 3.420330 -0.265089 -0.000000 0.000001 0.000000 -0.375798 -5.485929 6.512337 2.664602 3.285598 11.984953 -7.954314 -17.101665 -12.156424 -4.464399 -7.470109 -1.801356 0.000001 0.000003 -0.000000 
-1.663537 0.968979 0.097211 -0.411809 3.499449 -0.266562 -0.000000 -0.000000 0.000000 0.223981 -4.810938 6.823472 2.715261 1.731108 13.589453 -8.668270 -15.989711 -13.912244 -4.354985 -7.549499 -1.825015 -0.000001 0.000000 -0.000012 
-2.090132 0.834030 0.210542 -0.852315 3.528917 -0.165349 0.000000 -0.000000 -0.000000 0.585675 -2.863095 7.001911 2.934616 -2.351500 12.693643 -8.369785 -14.241541 -13.163291 -4.360018 -7.169304 -1.859215 0.000001 0.000005 0.000003 
-2.498513 0.671806 0.320612 -1.502157 3.621459 0.221264 0.000000 0.000000 -0.000000 1.419885 -2.398026 6.746620 3.148295 -3.237468 13.867326 -9.212725 -14.049984 -14.337829 -4.354298 -6.786968 -1.891027 0.000001 0.000004 -0.000004 
-2.863606 0.522232 0.400115 -2.140800 3.549681 0.098802 -0.000000 0.000001 0.000000 2.257882 -2.295846 7.164840 3.283260 -3.277707 14.214736 -9.648993 -14.144229 -14.956687 -4.417689 -6.385266 -1.902144 0.000000 0.000003 -0.000008 
-3.246884 0.361206 0.476993 -2.677029 3.500313 0.449239 0.000000 0.000000 -0.000000 3.012781 -2.159738 6.684340 3.371367 -3.236303 14.559481 -10.093239 -14.471081 -15.099453 -4.486288 -6.027912 -1.910137 0.000001 0.000005 -0.000000 
-3.693103 0.192474 0.571690 -3.546175 3.611985 -0.317101 0.000000 0.000000 -0.000000 4.086605 -2.257313 7.710476 3.692297 -3.218853 13.903358 -10.368369 -14.777410 -14.710346 -4.645783 -5.447213 -1.913242 -0.000002 -0.000005 -0.000007 
-4.129216 0.013969 0.659599 -4.116236 3.777541 -0.317776 0.000000 -0.000001 -0.000000 4.883400 -2.332443 7.653163 3.760551 -3.269052 14.579461 -10.707878 -14.861290 -15.165612 -4.823603 -5.087437 -1.882812 -0.000004 -0.000014 0.000001 
-4.505788 -0.181435 0.713969 -4.496320 3.951747 -0.094036 -0.000000 0.000000 0.000000 5.343718 -2.462367 7.191743 3.976964 -3.278985 14.527326 -10.903220 -15.181930 -15.061806 -4.944175 -4.588692 -1.890962 0.000001 0.000006 -0.000007 
-4.796124 -0.375397 0.761269 -5.216548 4.373404 -0.246158 -0.000000 -0.000001 0.000000 6.144732 -2.818876 6.866229 4.319045 -3.248118 15.407909 -11.345262 -15.388885 -15.272621 -5.043818 -4.184452 -1.901266 -0.000001 -0.000002 -0.000008 
-5.034100 -0.609093 0.815028 -5.599899 4.580435 -0.412626 -0.000000 -0.000000 0.000000 6.437642 -2.955229 6.788699 4.690880 -3.212111 14.737117 -11.275713 -16.059555 -14.521430 -5.235148 -3.611286 -1.906312 0.000000 0.000002 -0.000000 
-5.235887 -0.849731 0.874614 -6.111747 5.095824 -0.326995 -0.000000 -0.000001 0.000000 6.962230 -3.454296 6.732473 4.994989 -3.228644 16.536741 -12.038877 -15.918046 -15.742077 -5.226725 -3.571428 -1.913062 -0.000001 -0.000002 -0.000003 
-5.316651 -0.955124 0.958938 -6.404390 5.457613 -0.518788 0.000001 -0.000001 -0.000000 7.328728 -3.802329 7.462945 5.098153 -3.174722 16.006502 -12.334871 -16.316837 -16.027847 -5.177107 -3.320576 -1.959626 0.000002 0.000006 -0.000000 
